# AST/ASF file generated using VICON BodyLanguage
# -----------------------------------------------
:version 1.10
:name VICON
:units
  mass 1.0
  length 0.45
  angle deg
:documentation
   .ast/.asf automatically generated from VICON data using
   VICON BodyBuilder and BodyLanguage model FoxedUp or BRILLIANT.MOD
:root
   order TX TY TZ RX RY RZ
   axis XYZ
   position 0 0 0  
   orientation 0 0 0 
:bonedata
  begin
     id 1 
     name lhipjoint
     direction 0.602128 -0.715006 0.355257 
     length 2.21237 
     axis 0 0 0  XYZ
  end
  begin
     id 2 
     name lfemur
     direction 0.34202 -0.939693 0  
     length 6.71649  
     axis 0 0 20  XYZ
    dof rx ry rz
    limits (-160.0 20.0)
           (-70.0 70.0)
           (-60.0 70.0)
  end
  begin
     id 3 
     name ltibia
     direction 0.34202 -0.939693 0   
     length 6.97123   
     axis 0 0 20   XYZ
    dof rx
    limits (-10.0 170.0)
  end
  begin
     id 4 
     name lfoot
     direction 0.0655697 -0.180151 0.981451   
     length 1.80924   
     axis -90 7.62852e-016 20   XYZ
    dof rx rz
    limits (-45.0 90.0)
           (-70.0 20.0)
  end
  begin
     id 5 
     name ltoes
     direction 1.53545e-011 -4.21827e-011 1   
     length 0.916331   
     axis -90 7.62852e-016 20   XYZ
    dof rx
    limits (-90.0 20.0)
  end
  begin
     id 6 
     name rhipjoint
     direction -0.625414 -0.698792 0.347201   
     length 2.2637  
     axis 0 0 0  XYZ 
  end
  begin
     id 7 
     name rfemur
     direction -0.34202 -0.939693 0   
     length 7.07595   
     axis 0 0 -20   XYZ
    dof rx ry rz
    limits (-160.0 20.0)
           (-70.0 70.0)
           (-70.0 60.0)
  end
  begin
     id 8 
     name rtibia
     direction -0.34202 -0.939693 0   
     length 7.22924   
     axis 0 0 -20   XYZ
    dof rx
    limits (-10.0 170.0)
 end
 begin
     id 9 
     name rfoot
     direction -0.0766747 -0.210662 0.974547   
     length 1.98482  
     axis -90 -7.62852e-016 -20   XYZ
    dof rx rz
    limits (-45.0 90.0)
           (-20.0 70.0)
  end
  begin
     id 10 
     name rtoes
     direction -1.53532e-011 -4.21867e-011 1   
     length 0.999842   
     axis -90 -7.62852e-016 -20   XYZ
    dof rx
    limits (-90.0 20.0)
  end
  begin
     id 11 
     name lowerback
     direction -0.0224668 0.997354 -0.0691422   
     length 2.09945   
     axis 0 0 0   XYZ
    dof rx ry rz
    limits (-20.0 45.0)
           (-30.0 30.0)
           (-30.0 30.0)
  end
  begin
     id 12 
     name upperback
     direction 0.0134698 0.998451 -0.0539888   
     length 2.09758   
     axis 0 0 0   XYZ
    dof rx ry rz
    limits (-20.0 45.0)
           (-30.0 30.0)
           (-30.0 30.0)
  end
  begin
     id 13 
     name thorax
     direction 0.0241905 0.99948 -0.0213333   
     length 2.10428   
     axis 0 0 0   XYZ
    dof rx ry rz
    limits (-20.0 45.0)
           (-30.0 30.0)
           (-30.0 30.0)
  end
  begin
     id 14 
     name lowerneck
     direction -0.00866847 0.995978 0.0891737   
     length 1.3959   
     axis 0 0 0   XYZ
    dof rx ry rz
    limits (-20.0 45.0)
           (-30.0 30.0)
           (-30.0 30.0)
  end
  begin
     id 15 
     name upperneck
     direction 0.0680679 0.992203 0.104404   
     length 1.39452   
     axis 0 0 0   XYZ
    dof rx ry rz
    limits (-20.0 45.0)
           (-30.0 30.0)
           (-30.0 30.0)
  end
  begin
     id 16
     name head
     direction 0.0242216 0.999358 0.0264054  
     length 1.40433  
     axis 0 0 0   XYZ
    dof rx ry rz
    limits (-20.0 45.0)
           (-30.0 30.0)
           (-30.0 30.0)
  end
  begin
     id 17 
     name lclavicle
     direction 0.929368 0.362991 -0.0671771  
     length 3.04887  
     axis 0 0 0   XYZ
    dof ry rz
    limits (-20.0 10.0)
           (0.0 20.0)
  end
  begin
     id 18 
     name lhumerus
     direction 1 -4.48967e-011 -7.13741e-028   
     length 4.77195   
     axis -180 -30 -90   XYZ
    dof rx ry rz
    limits (-60.0 90.0)
           (-90.0 90.0)
           (-90.0 90.0)
  end
  begin
     id 19
     name lradius
     direction 1 -4.48977e-011 3.60404e-027   
     length 2.98444   
     axis -180 -30 -90   XYZ
    dof rx
    limits (-10.0 170.0)
  end
  begin
     id 20
     name lwrist
     direction 1 -4.48997e-011 7.54877e-027   
     length 1.49222   
     axis -7.18178e-015 90 90   XYZ
    dof ry
    limits (-180.0 0.0)
 end
  begin
     id 21 
     name lhand
     direction 1 -4.489e-011 1.51105e-026   
     length 0.992285   
     axis -9.63605e-015 90 90   XYZ
    dof rx rz
    limits (-90.0 90.0)
           (-45.0 45.0)
  end
  begin
     id 22 
     name lfingers
     direction 1 -4.48998e-011 3.01948e-026   
     length 0.800006   
     axis -1.92718e-014 90 90   XYZ
    dof rx
    limits (0.0 90.0)
  end
  begin
     id 23
     name lthumb
     direction 0.707107 -6.34881e-011 0.707107   
     length 1.14865   
     axis -90 45 -3.53137e-014   XYZ
    dof rx rz
    limits (-45.0 45.0)
           (-45.0 45.0)
  end
  begin
     id 24 
     name rclavicle
     direction -0.945672 0.324529 0.0196374   
     length 3.4236  
     axis 0 0 0   XYZ 
    dof ry rz
    limits (-10.0 20.0)
           (-20.0 0.0)
  end
  begin
     id 25 
     name rhumerus
     direction -1 -4.4896e-011 1.02757e-029  
     length 4.62052   
     axis -180 30 90   XYZ
    dof rx ry rz
    limits (-90.0 60.0)
           (-90.0 90.0)
           (-90.0 90.0)
  end
  begin
     id 26 
     name rradius
     direction -1 -4.48982e-011 3.85962e-027   
     length 2.95332   
     axis -180 30 90   XYZ
    dof rx
    limits (-10.0 170.0)
  end
  begin
     id 27 
     name rwrist
     direction -1 -4.48961e-011 7.55118e-027   
     length 1.47666   
     axis -7.18178e-015 -90 -90   XYZ
    dof ry
    limits (-180.0 0.0)
  end
  begin
     id 28
     name rhand
     direction -1 -4.48984e-011 1.50994e-026   
     length 0.990956   
     axis -9.63605e-015 -90 -90   XYZ
    dof rx rz
    limits (-90.0 90.0)
           (-45.0 45.0)
  end
  begin
     id 29
     name rfingers
     direction -1 -4.4892e-011 3.02158e-026   
     length 0.798934   
     axis -1.92718e-014 -90 -90   XYZ
    dof rx
    limits (0.0 90.0)
  end
  begin
     id 30
     name rthumb
     direction -0.707107 -6.34916e-011 0.707107   
     length 1.14711   
     axis -90 -45 3.53137e-014   XYZ
    dof rx rz
    limits (-45.0 45.0)
           (-45.0 45.0)
  end
:hierarchy
  begin
    root lhipjoint rhipjoint lowerback
    lhipjoint lfemur
    lfemur ltibia
    ltibia lfoot
    lfoot ltoes
    rhipjoint rfemur
    rfemur rtibia
    rtibia rfoot
    rfoot rtoes
    lowerback upperback
    upperback thorax
    thorax lowerneck lclavicle rclavicle
    lowerneck upperneck
    upperneck head
    lclavicle lhumerus
    lhumerus lradius
    lradius lwrist
    lwrist lhand lthumb
    lhand lfingers
    rclavicle rhumerus
    rhumerus rradius
    rradius rwrist
    rwrist rhand rthumb
    rhand rfingers
  end

#!OML:ASF H:\ManfredObstacles\Project 1\Capture day 1\Session 1\Male.ASF
:FULLY-SPECIFIED
:DEGREES
143
root 0.346909 16.1472 28.7439 -173.541 -4.96004 -179.798
lowerback -8.81118 -1.03468 -3.14218
upperback 1.91596 -1.00729 -0.418805
thorax 7.01614 -0.619623 1.17846
lowerneck 1.2473 -2.2927 -5.66943
upperneck -5.88811 -3.00271 9.24398
head -1.88416 -1.68852 4.1362
rclavicle 1.3418e-015 -9.54166e-015
rhumerus -36.8801 -23.3092 -75.9551
rradius 27.3648
rwrist 34.2991
rhand -3.03655 -5.80657
rfingers 7.12502
rthumb 22.6789 -34.494
lclavicle 1.3418e-015 -9.54166e-015
lhumerus -27.1023 21.8296 78.3615
lradius 15.3803
lwrist -36.8177
lhand -9.5025 7.99327
lfingers 7.12502
lthumb 16.4627 37.3148
rfemur -13.5796 -5.44545 20.2717
rtibia 51.1455
rfoot -5.81152 14.7381
rtoes 21.692
lfemur -22.9612 5.49417 -23.3156
ltibia 22.8101
lfoot 1.62078 -16.6956
ltoes 7.37829
144
root 0.304147 16.1514 28.6345 -173.6 -5.19018 -179.995
lowerback -8.66123 -1.1156 -3.42108
upperback 2.011 -1.08689 -0.47511
thorax 7.04031 -0.671555 1.26514
lowerneck 1.24927 -2.28791 -5.71875
upperneck -6.07811 -2.99245 9.52569
head -1.94534 -1.69888 4.25233
rclavicle 1.14301e-014 -7.95139e-015
rhumerus -36.7531 -23.3439 -75.9724
rradius 27.5827
rwrist 34.2036
rhand -3.17411 -5.9424
rfingers 7.12502
rthumb 22.5469 -34.6459
lclavicle 1.14301e-014 -7.95139e-015
lhumerus -26.5966 19.4545 79.6147
lradius 16.2717
lwrist -34.3348
lhand -9.57568 8.52263
lfingers 7.12502
lthumb 16.3922 37.85
rfemur -15.4787 -6.46232 19.7918
rtibia 54.3619
rfoot -5.44139 13.3328
rtoes 26.1998
lfemur -22.2715 6.13641 -23.761
ltibia 22.4396
lfoot 1.76116 -17.5843
ltoes 8.01702
145
root 0.266128 16.158 28.529 -173.713 -5.35541 -180.345
lowerback -8.43313 -1.1836 -3.83268
upperback 2.11935 -1.13677 -0.610481
thorax 7.0344 -0.714172 1.34863
lowerneck 1.34474 -2.32579 -5.63531
upperneck -6.30099 -3.03943 9.71183
head -2.0321 -1.74075 4.31219
rclavicle 4.96962e-017 1.19271e-015
rhumerus -36.6816 -23.808 -75.8324
rradius 27.6209
rwrist 34.4354
rhand -3.46627 -5.85991
rfingers 7.12502
rthumb 22.2664 -34.5971
lclavicle 4.96962e-017 1.19271e-015
lhumerus -26.1002 16.8455 80.7654
lradius 17.1266
lwrist -31.7433
lhand -9.72937 9.07991
lfingers 7.12502
lthumb 16.2442 38.4194
rfemur -17.3352 -7.32913 19.2268
rtibia 57.1237
rfoot -7.58039 10.8692
rtoes 23.4115
lfemur -21.5306 6.76691 -24.3305
ltibia 22.0901
lfoot 1.78848 -18.4639
ltoes 7.79104
146
root 0.230051 16.1649 28.4275 -173.836 -5.43215 -180.677
lowerback -8.22721 -1.24843 -4.30665
upperback 2.24944 -1.18119 -0.643655
thorax 7.06878 -0.759931 1.57471
lowerneck 1.51575 -2.46215 -5.53977
upperneck -6.51474 -3.22018 9.57302
head -2.12142 -1.83579 4.25571
rclavicle 1.47101e-014 -7.95139e-016
rhumerus -36.5699 -24.412 -75.4667
rradius 27.4823
rwrist 34.6924
rhand -3.87591 -5.59891
rfingers 7.12502
rthumb 21.8731 -34.3826
lclavicle 1.47101e-014 -7.95139e-016
lhumerus -25.5969 15.0658 81.6935
lradius 17.7302
lwrist -30.0513
lhand -9.95199 9.03761
lfingers 7.12502
lthumb 16.0299 38.3945
rfemur -19.1533 -7.89767 18.7091
rtibia 59.2734
rfoot -9.74354 8.50726
rtoes 21.2935
lfemur -20.7564 6.61611 -24.7082
ltibia 21.7699
lfoot 1.54283 -18.468
ltoes 8.07243
147
root 0.194637 16.1694 28.331 -174 -5.46523 -180.691
lowerback -8.03403 -1.26631 -4.42295
upperback 2.39767 -1.20335 -0.597
thorax 7.12147 -0.780743 1.68709
lowerneck 1.68649 -2.57912 -5.54121
upperneck -6.67991 -3.37659 9.48962
head -2.19546 -1.91608 4.23733
rclavicle -2.39039e-014 -7.95139e-015
rhumerus -36.3739 -24.9299 -75.2261
rradius 27.3491
rwrist 34.7368
rhand -4.11487 -5.5997
rfingers 7.12502
rthumb 21.6436 -34.41
lclavicle -2.39039e-014 -7.95139e-015
lhumerus -25.0923 14.3308 82.2569
lradius 18.1388
lwrist -29.583
lhand -10.1743 8.61434
lfingers 7.12502
lthumb 15.8158 37.9883
rfemur -20.8479 -8.10876 18.5535
rtibia 60.6827
rfoot -11.8216 6.70954
rtoes 17.8171
lfemur -20.0109 6.35344 -24.7083
ltibia 21.516
lfoot 1.39695 -18.3038
ltoes 9.50722
148
root 0.159588 16.176 28.2352 -174.186 -5.48367 -180.649
lowerback -7.78571 -1.25825 -4.33802
upperback 2.46604 -1.21266 -0.644618
thorax 7.04852 -0.781363 1.59154
lowerneck 1.74267 -2.62503 -5.46372
upperneck -6.50196 -3.44019 9.54309
head -2.14126 -1.9483 4.23826
rclavicle -1.16289e-014 1.70955e-014
rhumerus -36.3516 -25.3373 -75.167
rradius 27.2606
rwrist 34.8287
rhand -4.1885 -5.71523
rfingers 7.12502
rthumb 21.5729 -34.5337
lclavicle -1.16289e-014 1.70955e-014
lhumerus -24.6966 13.5274 82.582
lradius 18.4396
lwrist -29.1625
lhand -10.274 8.60312
lfingers 7.12502
lthumb 15.7198 37.9846
rfemur -22.3839 -8.0955 18.4475
rtibia 61.366
rfoot -13.456 5.56741
rtoes 14.0008
lfemur -19.365 6.40448 -24.6942
ltibia 21.4722
lfoot 1.2576 -18.5583
ltoes 10.7624
149
root 0.124741 16.186 28.1408 -174.25 -5.56403 -180.451
lowerback -7.64399 -1.29549 -4.09953
upperback 2.46931 -1.29516 -0.609853
thorax 6.96962 -0.810282 1.48564
lowerneck 1.76372 -2.59352 -5.4032
upperneck -6.27085 -3.4016 9.54971
head -2.0721 -1.92519 4.22208
rclavicle 2.1419e-014 1.27222e-014
rhumerus -36.35 -25.5253 -75.0922
rradius 27.1536
rwrist 34.9833
rhand -4.05894 -5.64905
rfingers 7.12502
rthumb 21.6974 -34.4532
lclavicle 2.1419e-014 1.27222e-014
lhumerus -24.3275 12.9465 82.862
lradius 18.562
lwrist -28.9564
lhand -10.2712 8.85382
lfingers 7.12502
lthumb 15.7225 38.2351
rfemur -23.864 -7.87712 18.5214
rtibia 61.3747
rfoot -14.7553 4.79852
rtoes 11.8839
lfemur -19.0122 6.48942 -24.5312
ltibia 21.6789
lfoot 0.882857 -18.8887
ltoes 10.9281
150
root 0.0930472 16.1883 28.0515 -174.17 -5.64537 -180.182
lowerback -7.67638 -1.32692 -3.84273
upperback 2.47887 -1.36461 -0.507872
thorax 6.99771 -0.834467 1.43851
lowerneck 1.83876 -2.58762 -5.45912
upperneck -6.20866 -3.396 9.59389
head -2.06462 -1.92145 4.24929
rclavicle 1.70955e-014 1.70955e-014
rhumerus -36.2171 -25.3708 -75.1298
rradius 27.109
rwrist 34.7862
rhand -3.81369 -5.48193
rfingers 7.12502
rthumb 21.9329 -34.2586
lclavicle 1.70955e-014 1.70955e-014
lhumerus -23.9312 12.5045 83.1974
lradius 18.7369
lwrist -28.9209
lhand -10.1399 9.04718
lfingers 7.12502
lthumb 15.8489 38.4185
rfemur -25.3636 -7.45624 18.6988
rtibia 60.8348
rfoot -15.9449 4.11489
rtoes 12.0334
lfemur -18.9497 6.60449 -24.3164
ltibia 22.0363
lfoot 0.402667 -19.2233
ltoes 10.3595
151
root 0.0688458 16.1822 27.9631 -174.039 -5.69942 -180.022
lowerback -7.76252 -1.35435 -3.7448
upperback 2.47591 -1.40884 -0.457064
thorax 7.04514 -0.852838 1.4291
lowerneck 1.78136 -2.66157 -5.39853
upperneck -6.00553 -3.49839 9.57945
head -1.97851 -1.96745 4.22549
rclavicle 1.30701e-014 -2.06736e-014
rhumerus -36.1924 -24.9624 -75.3376
rradius 27.2506
rwrist 34.35
rhand -3.52223 -5.43277
rfingers 7.12502
rthumb 22.2127 -34.1764
lclavicle 1.30701e-014 -2.06736e-014
lhumerus -23.6242 12.1278 83.4258
lradius 19.036
lwrist -28.7738
lhand -9.82956 9.10919
lfingers 7.12502
lthumb 16.1478 38.4565
rfemur -26.8303 -6.85431 18.7684
rtibia 59.8614
rfoot -17.0363 3.32087
rtoes 13.4068
lfemur -19.0042 6.60662 -24.1939
ltibia 22.5202
lfoot -0.124903 -19.5039
ltoes 10.0411
152
root 0.0494068 16.1765 27.8735 -173.976 -5.86418 -179.797
lowerback -7.71706 -1.44654 -3.64875
upperback 2.44446 -1.5487 -0.353004
thorax 6.99324 -0.91734 1.46656
lowerneck 1.70876 -2.69217 -5.36321
upperneck -5.848 -3.54228 9.5583
head -1.90981 -1.98445 4.20466
rclavicle -8.99501e-015 1.59028e-014
rhumerus -36.3457 -24.486 -75.49
rradius 27.5123
rwrist 34.1405
rhand -3.25533 -5.34292
rfingers 7.12502
rthumb 22.4689 -34.0558
lclavicle -8.99501e-015 1.59028e-014
lhumerus -23.483 12.0844 83.5725
lradius 19.3474
lwrist -28.6251
lhand -9.65098 8.91725
lfingers 7.12502
lthumb 16.3197 38.2506
rfemur -28.0659 -6.19738 18.8848
rtibia 58.4988
rfoot -18.1115 2.40289
rtoes 12.8309
lfemur -19.0133 6.2275 -23.9212
ltibia 23.1016
lfoot -0.836166 -19.5454
ltoes 9.91899
153
root 0.028042 16.1678 27.7851 -173.952 -6.02305 -179.618
lowerback -7.59193 -1.53986 -3.56773
upperback 2.41335 -1.69232 -0.247579
thorax 6.89673 -0.984155 1.51541
lowerneck 1.70961 -2.68199 -5.39799
upperneck -5.86571 -3.5289 9.59024
head -1.91615 -1.97867 4.2234
rclavicle 1.46107e-014 -2.78299e-015
rhumerus -36.3519 -24.288 -75.5146
rradius 27.5229
rwrist 34.3323
rhand -3.18069 -5.2349
rfingers 7.12502
rthumb 22.5405 -33.9391
lclavicle 1.46107e-014 -2.78299e-015
lhumerus -23.4364 11.6747 83.8471
lradius 19.7153
lwrist -28.0458
lhand -9.58554 8.91525
lfingers 7.12502
lthumb 16.3827 38.2434
rfemur -29.1154 -5.54192 18.8648
rtibia 56.8165
rfoot -18.9786 1.73353
rtoes 10.0325
lfemur -18.9284 5.51423 -23.6666
ltibia 23.6485
lfoot -1.81239 -19.2348
ltoes 9.06616
154
root 0.00820905 16.1543 27.7001 -173.881 -6.16893 -179.545
lowerback -7.51054 -1.63986 -3.59507
upperback 2.40828 -1.8309 -0.166591
thorax 6.85619 -1.05421 1.5988
lowerneck 2.0935 -2.85806 -5.38676
upperneck -6.34838 -3.75926 9.47469
head -2.12939 -2.10605 4.20775
rclavicle 1.92821e-014 -4.77083e-015
rhumerus -36.1029 -24.3185 -75.5364
rradius 27.3012
rwrist 34.6532
rhand -3.15891 -5.19454
rfingers 7.12502
rthumb 22.5614 -33.8962
lclavicle 1.92821e-014 -4.77083e-015
lhumerus -23.3662 10.7654 84.2619
lradius 20.1903
lwrist -27.0309
lhand -9.53194 9.11397
lfingers 7.12502
lthumb 16.4343 38.4378
rfemur -30.1014 -4.82896 18.6509
rtibia 54.8618
rfoot -19.4407 1.31146
rtoes 8.42764
lfemur -18.8294 4.85927 -23.556
ltibia 24.0553
lfoot -2.62597 -18.8881
ltoes 8.48425
155
root -0.00574222 16.1456 27.6157 -173.876 -6.44631 -179.46
lowerback -7.36951 -1.77675 -3.70251
upperback 2.4219 -2.01534 -0.0534306
thorax 6.80906 -1.15131 1.75609
lowerneck 2.3835 -2.93645 -5.27029
upperneck -6.71905 -3.85919 9.36294
head -2.3018 -2.16794 4.16707
rclavicle 1.635e-014 1.35174e-014
rhumerus -36.0686 -24.2247 -75.5104
rradius 27.2776
rwrist 34.7526
rhand -3.17224 -5.07673
rfingers 7.12502
rthumb 22.5487 -33.78
lclavicle 1.635e-014 1.35174e-014
lhumerus -23.28 10.0182 84.6699
lradius 20.5772
lwrist -26.2235
lhand -9.63103 9.03987
lfingers 7.12502
lthumb 16.3389 38.3716
rfemur -30.831 -4.15804 18.3924
rtibia 52.6541
rfoot -19.5218 0.956624
rtoes 10.7028
lfemur -18.6271 4.71058 -23.4762
ltibia 24.2993
lfoot -2.89743 -19.0379
ltoes 9.38946
156
root -0.0166156 16.145 27.5285 -173.838 -6.6731 -179.491
lowerback -7.30678 -1.90633 -3.97488
upperback 2.43766 -2.1701 0.0452551
thorax 6.81537 -1.24154 1.99268
lowerneck 2.42172 -2.89544 -5.3761
upperneck -6.8803 -3.80266 9.52002
head -2.36446 -2.1486 4.25013
rclavicle 2.22639e-014 1.70955e-014
rhumerus -36.2344 -24.0308 -75.4281
rradius 27.371
rwrist 34.6778
rhand -3.32086 -5.04331
rfingers 7.12502
rthumb 22.406 -33.7638
lclavicle 2.22639e-014 1.70955e-014
lhumerus -23.261 9.29211 85.0544
lradius 20.9094
lwrist -25.589
lhand -9.81317 8.90653
lfingers 7.12502
lthumb 16.1636 38.2526
rfemur -31.4256 -3.50861 17.9764
rtibia 50.2307
rfoot -23.3577 1.17534
rtoes 20.8788
lfemur -18.3702 4.96366 -23.5455
ltibia 24.3725
lfoot -2.94309 -19.5049
ltoes 10.2262
